<svg width="100%" height="100%" viewBox="0 0 8000 4500" version="1.1" xmlns="http://www.w3.org/2000/svg" style="fill-rule:evenodd;clip-rule:evenodd;stroke-linejoin:round;stroke-miterlimit:2;"><g transform="matrix(0.984268,-0.176681,0.176681,0.984268,309.619,-371.534)"><text x="-429.872px" y="3345.2px" style="font-family:'BrushScriptMT', 'Brush Script MT', cursive;font-style:italic;font-size:2698.07px;fill:#8d0100;">SiteArt</text></g><g transform="matrix(0.984268,-0.176681,0.176681,0.984268,314.445,-375.674)"><text x="-450.705px" y="3316.04px" style="font-family:'BrushScriptMT', 'Brush Script MT', cursive;font-style:italic;font-size:2698.07px;fill:#f00;">SiteArt</text></g><g><g><path d="M1369.55,3492.37c-4.11,-46.546 -17.066,-91.34 -38.504,-133.133c-43.304,-84.412 -116.116,-146.842 -205.226,-176.027c-0.739,-0.243 -1.496,-0.485 -2.235,-0.727c-90.86,-29.102 -187.557,-21.123 -272.28,22.464c-84.703,43.583 -147.174,117.531 -175.918,208.23c-28.558,90.132 -20.513,185.909 22.663,269.68c43.146,83.721 116.523,146.068 206.654,175.582l0.16,0.053c66.034,21.599 136.244,23.58 203.03,5.742l-14.513,-53.638c-56.316,15.044 -115.54,13.358 -171.266,-4.864c-0.046,-0.016 -0.083,-0.027 -0.129,-0.043c-156.139,-51.138 -242.938,-219.642 -193.491,-375.683c24.248,-76.536 76.964,-138.929 148.429,-175.701c71.483,-36.778 153.071,-43.511 229.73,-18.957c0.627,0.2 1.248,0.403 1.879,0.61c75.027,24.572 136.397,77.243 172.938,148.482c37.403,72.908 44.09,155.509 18.843,232.596l-3.26,9.953c-14.886,45.452 -64.106,70.27 -109.715,55.332c-45.61,-14.938 -70.611,-64.065 -55.725,-109.517l54.639,-166.826l-52.941,-17.339l-8.726,26.643c-14.792,-18.859 -35.14,-33.709 -59.609,-41.723c-65.68,-21.512 -136.556,14.233 -157.99,79.678l-19.005,58.026c-21.435,65.445 14.563,136.193 80.243,157.704c39.866,13.057 81.638,5.017 113.116,-17.946c14.976,38.451 46.445,70.206 88.72,84.052c74.805,24.5 155.521,-16.207 179.934,-90.745l3.26,-9.952c15.072,-46.019 20.553,-93.798 16.295,-142.006Zm-296.276,79.58c-11.908,36.36 -51.282,56.217 -87.772,44.266c-36.49,-11.952 -56.488,-51.254 -44.58,-87.614l19.005,-58.026c11.909,-36.36 51.283,-56.217 87.773,-44.266c36.49,11.951 56.488,51.254 44.579,87.613l-19.005,58.027Z" style="fill:#8d0100;fill-rule:nonzero;"/><path d="M7163.8,2374.15l-6069.26,1439.36l12.499,52.705l6069.26,-1439.36l-12.499,-52.704Z" style="fill:#8d0100;"/></g><path d="M7289.05,2364.68l-112.871,59.462l-13.8,-44.299l126.671,-15.163Z" style="fill:#8d0100;"/></g><g><g><path d="M1352.88,3467.37c-4.11,-46.546 -17.066,-91.34 -38.504,-133.133c-43.304,-84.412 -116.116,-146.842 -205.226,-176.027c-0.739,-0.243 -1.495,-0.485 -2.235,-0.727c-90.86,-29.102 -187.557,-21.123 -272.279,22.464c-84.704,43.583 -147.175,117.531 -175.919,208.23c-28.558,90.132 -20.513,185.909 22.663,269.68c43.146,83.721 116.524,146.068 206.654,175.582l0.16,0.053c66.035,21.599 136.245,23.58 203.031,5.742l-14.513,-53.638c-56.317,15.044 -115.541,13.358 -171.267,-4.864c-0.046,-0.016 -0.082,-0.027 -0.129,-0.043c-156.139,-51.138 -242.937,-219.642 -193.491,-375.683c24.249,-76.536 76.964,-138.929 148.429,-175.701c71.484,-36.778 153.072,-43.511 229.73,-18.957c0.628,0.2 1.248,0.403 1.879,0.61c75.027,24.572 136.398,77.243 172.939,148.482c37.403,72.908 44.09,155.509 18.842,232.596l-3.26,9.953c-14.886,45.452 -64.105,70.27 -109.715,55.332c-45.61,-14.938 -70.611,-64.065 -55.724,-109.517l54.639,-166.826l-52.941,-17.339l-8.727,26.643c-14.792,-18.859 -35.139,-33.709 -59.609,-41.723c-65.679,-21.512 -136.556,14.233 -157.99,79.678l-19.005,58.026c-21.434,65.445 14.564,136.193 80.243,157.704c39.866,13.057 81.638,5.017 113.116,-17.946c14.976,38.451 46.446,70.206 88.721,84.052c74.805,24.5 155.521,-16.207 179.933,-90.745l3.26,-9.952c15.072,-46.019 20.554,-93.798 16.295,-142.006Zm-296.275,79.58c-11.909,36.36 -51.283,56.217 -87.773,44.266c-36.49,-11.952 -56.488,-51.254 -44.579,-87.614l19.005,-58.026c11.908,-36.36 51.282,-56.217 87.772,-44.266c36.49,11.951 56.488,51.254 44.58,87.613l-19.005,58.027Z" style="fill:#f00;fill-rule:nonzero;"/><path d="M7147.13,2349.15l-6069.26,1439.36l12.499,52.705l6069.26,-1439.36l-12.499,-52.704Z" style="fill:#f00;"/></g><path d="M7272.39,2339.68l-112.871,59.462l-13.801,-44.299l126.672,-15.163Z" style="fill:#f00;"/></g><rect x="1087.5" y="3300" width="8.333" height="20.833" style="fill:#f00;"/></svg>